<?xml version="1.0" standalone="no"?><svg xmlns:xlink="http://www.w3.org/1999/xlink" xmlns="http://www.w3.org/2000/svg" viewBox="0 0 1000 615.3846153846154" preserveAspectRatio="xMaxYMax slice"><g transform="scale(1.0465724751439036)"><rect x="0" y="0" width="955.5" height="588" fill="#ffffff"/><rect x="0" y="0" width="73.5" height="73.5" fill="#2b2712"/><rect x="0" y="0" width="73.5" height="73.5" fill="#2b2712"/><rect x="73.5" y="0" width="73.5" height="73.5" fill="#ffffff"/><rect x="73.5" y="0" width="36.75" height="36.75" fill="#2b2712"/><path d="M 73.5 0 A 36.75 36.75 0 0 1 110.25 36.75 L 73.5 36.75" fill="#bd9c93"/><rect x="110.25" y="0" width="36.75" height="36.75" fill="#bd9c93"/><path d="M 110.25 36.75 A 36.75 36.75 0 0 1  147 0 L 147 36.75" fill="#bd9c93"/><rect x="73.5" y="36.75" width="36.75" height="36.75" fill="#bd9c93"/><path d="M 73.5 73.5 A 36.75 36.75 0 0 0 110.25 36.75 L 73.5 36.75" fill="#2b2712"/><rect x="110.25" y="36.75" width="36.75" height="36.75" fill="#bd9c93"/><path d="M 110.25 36.75 A 36.75 36.75 0 0 0 147 73.5 L 147 36.75" fill="#bd9c93"/><rect x="147" y="0" width="73.5" height="73.5" fill="#2b2712"/><path d="M 147 73.5 A 73.5 73.5 0 0 0 220.5 0 L 147 0" fill="#2b2712"/><rect x="220.5" y="0" width="73.5" height="73.5" fill="#bd9c93"/><rect x="220.5" y="0" width="73.5" height="73.5" fill="#bd9c93"/><rect x="294" y="0" width="73.5" height="73.5" fill="#2b2712"/><polygon points="294,0 367.5,0 294,73.5" fill="#2b2712"/><rect x="367.5" y="0" width="73.5" height="73.5" fill="#bd9c93"/><rect x="367.5" y="0" width="73.5" height="73.5" fill="#bd9c93"/><rect x="441" y="0" width="73.5" height="73.5" fill="#ffffff"/><rect x="441" y="0" width="36.75" height="36.75" fill="#bd9c93"/><polygon points="441,0 477.75,0 441,36.75" fill="#bd9c93"/><rect x="477.75" y="0" width="36.75" height="36.75" fill="#2b2712"/><polygon points="477.75,0 514.5,0 514.5,36.75" fill="#bd9c93"/><rect x="441" y="36.75" width="36.75" height="36.75" fill="#bd9c93"/><polygon points="477.75,36.75 477.75,73.5 441,73.5" fill="#2b2712"/><rect x="477.75" y="36.75" width="36.75" height="36.75" fill="#2b2712"/><polygon points="477.75,36.75 514.5,73.5 477.75,73.5" fill="#bd9c93"/><rect x="514.5" y="0" width="73.5" height="73.5" fill="#ffffff"/><rect x="514.5" y="0" width="36.75" height="36.75" fill="#2b2712"/><path d="M 514.5 36.75 A 36.75 36.75 0 0 0 551.25 0 L 514.5 0" fill="#2b2712"/><rect x="551.25" y="0" width="36.75" height="36.75" fill="#2b2712"/><path d="M 551.25 0 A 36.75 36.75 0 0 0 588 36.75 L 588 0" fill="#2b2712"/><rect x="514.5" y="36.75" width="36.75" height="36.75" fill="#2b2712"/><path d="M 514.5 36.75 A 36.75 36.75 0 0 1 551.25 73.5 L 514.5 73.5" fill="#bd9c93"/><rect x="551.25" y="36.75" width="36.75" height="36.75" fill="#bd9c93"/><path d="M 551.25 73.5 A 36.75 36.75 0 0 1  588 36.75 L 588 73.5" fill="#bd9c93"/><rect x="588" y="0" width="73.5" height="73.5" fill="#ffffff"/><rect x="588" y="0" width="36.75" height="36.75" fill="#2b2712"/><circle cx="606.375" cy="18.375" r="18.375" fill="#2b2712"/><rect x="624.75" y="0" width="36.75" height="36.75" fill="#bd9c93"/><rect x="624.75" y="0" width="36.75" height="36.75" fill="#bd9c93"/><rect x="588" y="36.75" width="36.75" height="36.75" fill="#2b2712"/><circle cx="606.375" cy="55.125" r="18.375" fill="#2b2712"/><rect x="624.75" y="36.75" width="36.75" height="36.75" fill="#2b2712"/><rect x="624.75" y="36.75" width="36.75" height="36.75" fill="#bd9c93"/><rect x="661.5" y="0" width="73.5" height="73.5" fill="#2b2712"/><rect x="661.5" y="0" width="73.5" height="73.5" fill="#bd9c93"/><rect x="735" y="0" width="73.5" height="73.5" fill="#2b2712"/><polygon points="735,0 808.5,0 808.5,73.5" fill="#bd9c93"/><rect x="808.5" y="0" width="73.5" height="73.5" fill="#ffffff"/><rect x="808.5" y="0" width="36.75" height="36.75" fill="#2b2712"/><path d="M 808.5 0 A 36.75 36.75 0 0 1 845.25 36.75 L 808.5 36.75" fill="#bd9c93"/><rect x="845.25" y="0" width="36.75" height="36.75" fill="#2b2712"/><path d="M 845.25 36.75 A 36.75 36.75 0 0 1  882 0 L 882 36.75" fill="#bd9c93"/><rect x="808.5" y="36.75" width="36.75" height="36.75" fill="#bd9c93"/><path d="M 808.5 73.5 A 36.75 36.75 0 0 0 845.25 36.75 L 808.5 36.75" fill="#bd9c93"/><rect x="845.25" y="36.75" width="36.75" height="36.75" fill="#2b2712"/><path d="M 845.25 36.75 A 36.75 36.75 0 0 0 882 73.5 L 882 36.75" fill="#bd9c93"/><rect x="882" y="0" width="73.5" height="73.5" fill="#bd9c93"/><polygon points="882,0 955.5,73.5 882,73.5" fill="#2b2712"/><rect x="0" y="73.5" width="73.5" height="73.5" fill="#2b2712"/><path d="M 0 147 A 73.5 73.5 0 0 0 73.5 73.5 L 0 73.5" fill="#2b2712"/><rect x="73.5" y="73.5" width="73.5" height="73.5" fill="#ffffff"/><rect x="73.5" y="73.5" width="36.75" height="36.75" fill="#2b2712"/><path d="M 73.5 73.5 A 36.75 36.75 0 0 1 110.25 110.25 L 73.5 110.25" fill="#2b2712"/><rect x="110.25" y="73.5" width="36.75" height="36.75" fill="#2b2712"/><path d="M 110.25 110.25 A 36.75 36.75 0 0 1  147 73.5 L 147 110.25" fill="#2b2712"/><rect x="73.5" y="110.25" width="36.75" height="36.75" fill="#bd9c93"/><path d="M 73.5 147 A 36.75 36.75 0 0 0 110.25 110.25 L 73.5 110.25" fill="#bd9c93"/><rect x="110.25" y="110.25" width="36.75" height="36.75" fill="#bd9c93"/><path d="M 110.25 110.25 A 36.75 36.75 0 0 0 147 147 L 147 110.25" fill="#bd9c93"/><rect x="147" y="73.5" width="73.5" height="73.5" fill="#2b2712"/><polygon points="147,73.5 220.5,147 147,147" fill="#2b2712"/><rect x="220.5" y="73.5" width="73.5" height="73.5" fill="#ffffff"/><rect x="220.5" y="73.5" width="36.75" height="36.75" fill="#bd9c93"/><path d="M 220.5 73.5 A 36.75 36.75 0 0 1 257.25 110.25 L 220.5 110.25" fill="#2b2712"/><rect x="257.25" y="73.5" width="36.75" height="36.75" fill="#2b2712"/><path d="M 257.25 110.25 A 36.75 36.75 0 0 1  294 73.5 L 294 110.25" fill="#bd9c93"/><rect x="220.5" y="110.25" width="36.75" height="36.75" fill="#2b2712"/><path d="M 220.5 147 A 36.75 36.75 0 0 0 257.25 110.25 L 220.5 110.25" fill="#2b2712"/><rect x="257.25" y="110.25" width="36.75" height="36.75" fill="#2b2712"/><path d="M 257.25 110.25 A 36.75 36.75 0 0 0 294 147 L 294 110.25" fill="#2b2712"/><rect x="294" y="73.5" width="73.5" height="73.5" fill="#ffffff"/><rect x="294" y="73.5" width="36.75" height="36.75" fill="#bd9c93"/><polygon points="294,73.5 330.75,73.5 294,110.25" fill="#bd9c93"/><rect x="330.75" y="73.5" width="36.75" height="36.75" fill="#bd9c93"/><polygon points="330.75,73.5 367.5,73.5 367.5,110.25" fill="#bd9c93"/><rect x="294" y="110.25" width="36.75" height="36.75" fill="#bd9c93"/><polygon points="330.75,110.25 330.75,147 294,147" fill="#bd9c93"/><rect x="330.75" y="110.25" width="36.75" height="36.75" fill="#2b2712"/><polygon points="330.75,110.25 367.5,147 330.75,147" fill="#2b2712"/><rect x="367.5" y="73.5" width="73.5" height="73.5" fill="#2b2712"/><path d="M 367.5 73.5 A 73.5 73.5 0 0 0 441 147 L 441 73.5" fill="#bd9c93"/><rect x="441" y="73.5" width="73.5" height="73.5" fill="#bd9c93"/><path d="M 441 147 A 73.5 73.5 0 0 1  514.5 73.5 L 441 147 A 73.5 73.5 0 0 0 514.5 73.5" fill="#2b2712"/><rect x="514.5" y="73.5" width="73.5" height="73.5" fill="#ffffff"/><rect x="514.5" y="73.5" width="36.75" height="36.75" fill="#bd9c93"/><polygon points="514.5,73.5 551.25,73.5 514.5,110.25" fill="#2b2712"/><rect x="551.25" y="73.5" width="36.75" height="36.75" fill="#bd9c93"/><polygon points="588,73.5 588,110.25 551.25,110.25" fill="#2b2712"/><rect x="514.5" y="110.25" width="36.75" height="36.75" fill="#bd9c93"/><polygon points="514.5,110.25 551.25,110.25 551.25,147" fill="#2b2712"/><rect x="551.25" y="110.25" width="36.75" height="36.75" fill="#2b2712"/><polygon points="551.25,110.25 588,147 551.25,147" fill="#2b2712"/><rect x="588" y="73.5" width="73.5" height="73.5" fill="#ffffff"/><rect x="588" y="73.5" width="36.75" height="36.75" fill="#2b2712"/><polygon points="588,73.5 624.75,73.5 588,110.25" fill="#2b2712"/><rect x="624.75" y="73.5" width="36.75" height="36.75" fill="#2b2712"/><polygon points="624.75,73.5 661.5,73.5 661.5,110.25" fill="#bd9c93"/><rect x="588" y="110.25" width="36.75" height="36.75" fill="#2b2712"/><polygon points="588,110.25 624.75,147 588,147" fill="#bd9c93"/><rect x="624.75" y="110.25" width="36.75" height="36.75" fill="#2b2712"/><polygon points="661.5,110.25 661.5,147 624.75,147" fill="#2b2712"/><rect x="661.5" y="73.5" width="73.5" height="73.5" fill="#bd9c93"/><rect x="661.5" y="73.5" width="73.5" height="73.5" fill="#2b2712"/><rect x="735" y="73.5" width="73.5" height="73.5" fill="#bd9c93"/><path d="M 735 73.5 A 73.5 73.5 0 0 0 808.5 147 L 808.5 73.5" fill="#2b2712"/><rect x="808.5" y="73.5" width="73.5" height="73.5" fill="#ffffff"/><rect x="808.5" y="73.5" width="36.75" height="36.75" fill="#2b2712"/><circle cx="826.875" cy="91.875" r="18.375" fill="#bd9c93"/><rect x="845.25" y="73.5" width="36.75" height="36.75" fill="#2b2712"/><rect x="845.25" y="73.5" width="36.75" height="36.75" fill="#2b2712"/><rect x="808.5" y="110.25" width="36.75" height="36.75" fill="#2b2712"/><circle cx="826.875" cy="128.625" r="18.375" fill="#2b2712"/><rect x="845.25" y="110.25" width="36.75" height="36.75" fill="#2b2712"/><rect x="845.25" y="110.25" width="36.75" height="36.75" fill="#bd9c93"/><rect x="882" y="73.5" width="73.5" height="73.5" fill="#ffffff"/><rect x="882" y="73.5" width="36.75" height="36.75" fill="#bd9c93"/><path d="M 882 73.5 A 36.75 36.75 0 0 1 918.75 110.25 L 882 110.25" fill="#bd9c93"/><rect x="918.75" y="73.5" width="36.75" height="36.75" fill="#2b2712"/><path d="M 918.75 110.25 A 36.75 36.75 0 0 1  955.5 73.5 L 955.5 110.25" fill="#bd9c93"/><rect x="882" y="110.25" width="36.75" height="36.75" fill="#2b2712"/><path d="M 882 147 A 36.75 36.75 0 0 0 918.75 110.25 L 882 110.25" fill="#2b2712"/><rect x="918.75" y="110.25" width="36.75" height="36.75" fill="#bd9c93"/><path d="M 918.75 110.25 A 36.75 36.75 0 0 0 955.5 147 L 955.5 110.25" fill="#2b2712"/><rect x="0" y="147" width="73.5" height="73.5" fill="#ffffff"/><rect x="0" y="147" width="36.75" height="36.75" fill="#bd9c93"/><path d="M 0 147 A 36.75 36.75 0 0 0 36.75 183.75 L 36.75 147" fill="#bd9c93"/><rect x="36.75" y="147" width="36.75" height="36.75" fill="#2b2712"/><path d="M 36.75 183.75 A 36.75 36.75 0 0 0 73.5 147 L 36.75 147" fill="#2b2712"/><rect x="0" y="183.75" width="36.75" height="36.75" fill="#2b2712"/><path d="M 0 220.5 A 36.75 36.75 0 0 1  36.75 183.75 L 36.75 220.5" fill="#bd9c93"/><rect x="36.75" y="183.75" width="36.75" height="36.75" fill="#2b2712"/><path d="M 36.75 183.75 A 36.75 36.75 0 0 1 73.5 220.5 L 36.75 220.5" fill="#2b2712"/><rect x="73.5" y="147" width="73.5" height="73.5" fill="#2b2712"/><path d="M 73.5 147 A 73.5 73.5 0 0 0 147 220.5 L 147 147" fill="#bd9c93"/><rect x="147" y="147" width="73.5" height="73.5" fill="#ffffff"/><rect x="147" y="147" width="36.75" height="36.75" fill="#bd9c93"/><polygon points="147,147 183.75,147 147,183.75" fill="#2b2712"/><rect x="183.75" y="147" width="36.75" height="36.75" fill="#bd9c93"/><polygon points="183.75,147 220.5,147 220.5,183.75" fill="#2b2712"/><rect x="147" y="183.75" width="36.75" height="36.75" fill="#bd9c93"/><polygon points="147,183.75 183.75,220.5 147,220.5" fill="#2b2712"/><rect x="183.75" y="183.75" width="36.75" height="36.75" fill="#2b2712"/><polygon points="220.5,183.75 220.5,220.5 183.75,220.5" fill="#bd9c93"/><rect x="220.5" y="147" width="73.5" height="73.5" fill="#2b2712"/><path d="M 220.5 147 A 73.5 73.5 0 0 0 294 220.5 L 294 147" fill="#bd9c93"/><rect x="294" y="147" width="73.5" height="73.5" fill="#ffffff"/><rect x="294" y="147" width="36.75" height="36.75" fill="#2b2712"/><path d="M 294 183.75 A 36.75 36.75 0 0 0 330.75 147 L 294 147" fill="#bd9c93"/><rect x="330.75" y="147" width="36.75" height="36.75" fill="#bd9c93"/><path d="M 330.75 147 A 36.75 36.75 0 0 0 367.5 183.75 L 367.5 147" fill="#bd9c93"/><rect x="294" y="183.75" width="36.75" height="36.75" fill="#bd9c93"/><path d="M 294 183.75 A 36.75 36.75 0 0 1 330.75 220.5 L 294 220.5" fill="#2b2712"/><rect x="330.75" y="183.75" width="36.75" height="36.75" fill="#2b2712"/><path d="M 330.75 220.5 A 36.75 36.75 0 0 1  367.5 183.75 L 367.5 220.5" fill="#2b2712"/><rect x="367.5" y="147" width="73.5" height="73.5" fill="#bd9c93"/><polygon points="367.5,147 441,147 367.5,220.5" fill="#bd9c93"/><rect x="441" y="147" width="73.5" height="73.5" fill="#ffffff"/><rect x="441" y="147" width="36.75" height="36.75" fill="#2b2712"/><path d="M 441 183.75 A 36.75 36.75 0 0 1 477.75 147 L 477.75 156.1875 A 27.5625 27.5625 0 0 0 450.1875 183.75" fill="#bd9c93"/><rect x="477.75" y="147" width="36.75" height="36.75" fill="#bd9c93"/><path d="M 477.75 147 A 36.75 36.75 0 0 1 514.5 183.75 L 505.3125 183.75 A 27.5625 27.5625 0 0 0 477.75 156.1875" fill="#2b2712"/><rect x="441" y="183.75" width="36.75" height="36.75" fill="#2b2712"/><path d="M 441 183.75 A 36.75 36.75 0 0 0 477.75 220.5 L 477.75 211.3125 A 27.5625 27.5625 0 0 1 450.1875 183.75" fill="#2b2712"/><rect x="477.75" y="183.75" width="36.75" height="36.75" fill="#bd9c93"/><path d="M 477.75 220.5 A 36.75 36.75 0 0 0 514.5 183.75 L 505.3125 183.75 A 27.5625 27.5625 0 0 1 477.75 211.3125" fill="#2b2712"/><rect x="514.5" y="147" width="73.5" height="73.5" fill="#2b2712"/><path d="M 514.5 147 A 73.5 73.5 0 0 0 588 220.5 L 588 147" fill="#2b2712"/><rect x="588" y="147" width="73.5" height="73.5" fill="#bd9c93"/><rect x="588" y="147" width="73.5" height="73.5" fill="#2b2712"/><rect x="661.5" y="147" width="73.5" height="73.5" fill="#2b2712"/><path d="M 661.5 220.5 A 73.5 73.5 0 0 1  735 147 L 735 220.5" fill="#bd9c93"/><rect x="735" y="147" width="73.5" height="73.5" fill="#2b2712"/><polygon points="735,147 808.5,147 808.5,220.5" fill="#bd9c93"/><rect x="808.5" y="147" width="73.5" height="73.5" fill="#ffffff"/><rect x="808.5" y="147" width="36.75" height="36.75" fill="#bd9c93"/><polygon points="808.5,147 845.25,147 808.5,183.75" fill="#2b2712"/><rect x="845.25" y="147" width="36.75" height="36.75" fill="#2b2712"/><polygon points="882,147 882,183.75 845.25,183.75" fill="#bd9c93"/><rect x="808.5" y="183.75" width="36.75" height="36.75" fill="#bd9c93"/><polygon points="808.5,183.75 845.25,183.75 845.25,220.5" fill="#bd9c93"/><rect x="845.25" y="183.75" width="36.75" height="36.75" fill="#2b2712"/><polygon points="845.25,183.75 882,220.5 845.25,220.5" fill="#bd9c93"/><rect x="882" y="147" width="73.5" height="73.5" fill="#ffffff"/><rect x="882" y="147" width="36.75" height="36.75" fill="#bd9c93"/><path d="M 882 183.75 A 36.75 36.75 0 0 1 918.75 147 L 918.75 156.1875 A 27.5625 27.5625 0 0 0 891.1875 183.75" fill="#bd9c93"/><rect x="918.75" y="147" width="36.75" height="36.75" fill="#bd9c93"/><path d="M 918.75 147 A 36.75 36.75 0 0 1 955.5 183.75 L 946.3125 183.75 A 27.5625 27.5625 0 0 0 918.75 156.1875" fill="#bd9c93"/><rect x="882" y="183.75" width="36.75" height="36.75" fill="#bd9c93"/><path d="M 882 183.75 A 36.75 36.75 0 0 0 918.75 220.5 L 918.75 211.3125 A 27.5625 27.5625 0 0 1 891.1875 183.75" fill="#bd9c93"/><rect x="918.75" y="183.75" width="36.75" height="36.75" fill="#bd9c93"/><path d="M 918.75 220.5 A 36.75 36.75 0 0 0 955.5 183.75 L 946.3125 183.75 A 27.5625 27.5625 0 0 1 918.75 211.3125" fill="#2b2712"/><rect x="0" y="220.5" width="73.5" height="73.5" fill="#bd9c93"/><rect x="0" y="220.5" width="73.5" height="73.5" fill="#bd9c93"/><rect x="73.5" y="220.5" width="73.5" height="73.5" fill="#2b2712"/><rect x="73.5" y="220.5" width="73.5" height="73.5" fill="#2b2712"/><rect x="147" y="220.5" width="73.5" height="73.5" fill="#bd9c93"/><polygon points="220.5,220.5 220.5,294 147,294" fill="#bd9c93"/><rect x="220.5" y="220.5" width="73.5" height="73.5" fill="#ffffff"/><rect x="220.5" y="220.5" width="36.75" height="36.75" fill="#2b2712"/><path d="M 220.5 257.25 A 36.75 36.75 0 0 1 257.25 220.5 L 257.25 229.6875 A 27.5625 27.5625 0 0 0 229.6875 257.25" fill="#bd9c93"/><rect x="257.25" y="220.5" width="36.75" height="36.75" fill="#bd9c93"/><path d="M 257.25 220.5 A 36.75 36.75 0 0 1 294 257.25 L 284.8125 257.25 A 27.5625 27.5625 0 0 0 257.25 229.6875" fill="#bd9c93"/><rect x="220.5" y="257.25" width="36.75" height="36.75" fill="#bd9c93"/><path d="M 220.5 257.25 A 36.75 36.75 0 0 0 257.25 294 L 257.25 284.8125 A 27.5625 27.5625 0 0 1 229.6875 257.25" fill="#2b2712"/><rect x="257.25" y="257.25" width="36.75" height="36.75" fill="#2b2712"/><path d="M 257.25 294 A 36.75 36.75 0 0 0 294 257.25 L 284.8125 257.25 A 27.5625 27.5625 0 0 1 257.25 284.8125" fill="#bd9c93"/><rect x="294" y="220.5" width="73.5" height="73.5" fill="#2b2712"/><path d="M 294 220.5 A 73.5 73.5 0 0 0 367.5 294 L 367.5 220.5" fill="#bd9c93"/><rect x="367.5" y="220.5" width="73.5" height="73.5" fill="#ffffff"/><rect x="367.5" y="220.5" width="36.75" height="36.75" fill="#bd9c93"/><polygon points="367.5,220.5 404.25,220.5 367.5,257.25" fill="#2b2712"/><rect x="404.25" y="220.5" width="36.75" height="36.75" fill="#2b2712"/><polygon points="404.25,220.5 441,220.5 441,257.25" fill="#bd9c93"/><rect x="367.5" y="257.25" width="36.75" height="36.75" fill="#bd9c93"/><polygon points="367.5,257.25 404.25,294 367.5,294" fill="#bd9c93"/><rect x="404.25" y="257.25" width="36.75" height="36.75" fill="#bd9c93"/><polygon points="441,257.25 441,294 404.25,294" fill="#2b2712"/><rect x="441" y="220.5" width="73.5" height="73.5" fill="#bd9c93"/><path d="M 441 294 A 73.5 73.5 0 0 1  514.5 220.5 L 514.5 294" fill="#2b2712"/><rect x="514.5" y="220.5" width="73.5" height="73.5" fill="#ffffff"/><rect x="514.5" y="220.5" width="36.75" height="36.75" fill="#bd9c93"/><path d="M 514.5 220.5 A 36.75 36.75 0 0 1 551.25 257.25 L 514.5 257.25" fill="#bd9c93"/><rect x="551.25" y="220.5" width="36.75" height="36.75" fill="#2b2712"/><path d="M 551.25 257.25 A 36.75 36.75 0 0 1  588 220.5 L 588 257.25" fill="#2b2712"/><rect x="514.5" y="257.25" width="36.75" height="36.75" fill="#2b2712"/><path d="M 514.5 294 A 36.75 36.75 0 0 0 551.25 257.25 L 514.5 257.25" fill="#bd9c93"/><rect x="551.25" y="257.25" width="36.75" height="36.75" fill="#2b2712"/><path d="M 551.25 257.25 A 36.75 36.75 0 0 0 588 294 L 588 257.25" fill="#2b2712"/><rect x="588" y="220.5" width="73.5" height="73.5" fill="#ffffff"/><rect x="588" y="220.5" width="36.75" height="36.75" fill="#bd9c93"/><path d="M 588 220.5 A 36.75 36.75 0 0 0 624.75 257.25 L 624.75 220.5" fill="#bd9c93"/><rect x="624.75" y="220.5" width="36.75" height="36.75" fill="#bd9c93"/><path d="M 624.75 257.25 A 36.75 36.75 0 0 0 661.5 220.5 L 624.75 220.5" fill="#bd9c93"/><rect x="588" y="257.25" width="36.75" height="36.75" fill="#2b2712"/><path d="M 588 294 A 36.75 36.75 0 0 1  624.75 257.25 L 624.75 294" fill="#2b2712"/><rect x="624.75" y="257.25" width="36.75" height="36.75" fill="#bd9c93"/><path d="M 624.75 257.25 A 36.75 36.75 0 0 1 661.5 294 L 624.75 294" fill="#bd9c93"/><rect x="661.5" y="220.5" width="73.5" height="73.5" fill="#bd9c93"/><path d="M 661.5 294 A 73.5 73.5 0 0 1  735 220.5 L 661.5 294 A 73.5 73.5 0 0 0 735 220.5" fill="#2b2712"/><rect x="735" y="220.5" width="73.5" height="73.5" fill="#ffffff"/><rect x="735" y="220.5" width="36.75" height="36.75" fill="#bd9c93"/><polygon points="735,220.5 771.75,220.5 735,257.25" fill="#2b2712"/><rect x="771.75" y="220.5" width="36.75" height="36.75" fill="#bd9c93"/><polygon points="771.75,220.5 808.5,220.5 808.5,257.25" fill="#2b2712"/><rect x="735" y="257.25" width="36.75" height="36.75" fill="#bd9c93"/><polygon points="771.75,257.25 771.75,294 735,294" fill="#2b2712"/><rect x="771.75" y="257.25" width="36.75" height="36.75" fill="#2b2712"/><polygon points="771.75,257.25 808.5,294 771.75,294" fill="#bd9c93"/><rect x="808.5" y="220.5" width="73.5" height="73.5" fill="#bd9c93"/><polygon points="882,220.5 882,294 808.5,294" fill="#bd9c93"/><rect x="882" y="220.5" width="73.5" height="73.5" fill="#bd9c93"/><path d="M 882 294 A 73.5 73.5 0 0 1  955.5 220.5 L 955.5 294" fill="#bd9c93"/><rect x="0" y="294" width="73.5" height="73.5" fill="#2b2712"/><rect x="0" y="294" width="73.5" height="73.5" fill="#2b2712"/><rect x="73.5" y="294" width="73.5" height="73.5" fill="#ffffff"/><rect x="73.5" y="294" width="36.75" height="36.75" fill="#2b2712"/><circle cx="91.875" cy="312.375" r="18.375" fill="#2b2712"/><rect x="110.25" y="294" width="36.75" height="36.75" fill="#2b2712"/><rect x="110.25" y="294" width="36.75" height="36.75" fill="#bd9c93"/><rect x="73.5" y="330.75" width="36.75" height="36.75" fill="#2b2712"/><circle cx="91.875" cy="349.125" r="18.375" fill="#2b2712"/><rect x="110.25" y="330.75" width="36.75" height="36.75" fill="#2b2712"/><rect x="110.25" y="330.75" width="36.75" height="36.75" fill="#2b2712"/><rect x="147" y="294" width="73.5" height="73.5" fill="#ffffff"/><rect x="147" y="294" width="36.75" height="36.75" fill="#2b2712"/><polygon points="147,294 183.75,294 147,330.75" fill="#2b2712"/><rect x="183.75" y="294" width="36.75" height="36.75" fill="#2b2712"/><polygon points="183.75,294 220.5,294 220.5,330.75" fill="#2b2712"/><rect x="147" y="330.75" width="36.75" height="36.75" fill="#2b2712"/><polygon points="183.75,330.75 183.75,367.5 147,367.5" fill="#2b2712"/><rect x="183.75" y="330.75" width="36.75" height="36.75" fill="#bd9c93"/><polygon points="183.75,330.75 220.5,367.5 183.75,367.5" fill="#bd9c93"/><rect x="220.5" y="294" width="73.5" height="73.5" fill="#ffffff"/><rect x="220.5" y="294" width="36.75" height="36.75" fill="#bd9c93"/><path d="M 220.5 294 A 36.75 36.75 0 0 0 257.25 330.75 L 257.25 294" fill="#bd9c93"/><rect x="257.25" y="294" width="36.75" height="36.75" fill="#2b2712"/><path d="M 257.25 330.75 A 36.75 36.75 0 0 0 294 294 L 257.25 294" fill="#bd9c93"/><rect x="220.5" y="330.75" width="36.75" height="36.75" fill="#bd9c93"/><path d="M 220.5 367.5 A 36.75 36.75 0 0 1  257.25 330.75 L 257.25 367.5" fill="#2b2712"/><rect x="257.25" y="330.75" width="36.75" height="36.75" fill="#2b2712"/><path d="M 257.25 330.75 A 36.75 36.75 0 0 1 294 367.5 L 257.25 367.5" fill="#2b2712"/><rect x="294" y="294" width="73.5" height="73.5" fill="#2b2712"/><rect x="294" y="294" width="73.5" height="73.5" fill="#bd9c93"/><rect x="367.5" y="294" width="73.5" height="73.5" fill="#2b2712"/><rect x="367.5" y="294" width="73.5" height="73.5" fill="#bd9c93"/><rect x="441" y="294" width="73.5" height="73.5" fill="#ffffff"/><rect x="441" y="294" width="36.75" height="36.75" fill="#2b2712"/><polygon points="441,294 477.75,294 441,330.75" fill="#2b2712"/><rect x="477.75" y="294" width="36.75" height="36.75" fill="#2b2712"/><polygon points="477.75,294 514.5,294 514.5,330.75" fill="#bd9c93"/><rect x="441" y="330.75" width="36.75" height="36.75" fill="#bd9c93"/><polygon points="477.75,330.75 477.75,367.5 441,367.5" fill="#bd9c93"/><rect x="477.75" y="330.75" width="36.75" height="36.75" fill="#2b2712"/><polygon points="477.75,330.75 514.5,367.5 477.75,367.5" fill="#2b2712"/><rect x="514.5" y="294" width="73.5" height="73.5" fill="#ffffff"/><rect x="514.5" y="294" width="36.75" height="36.75" fill="#2b2712"/><path d="M 514.5 330.75 A 36.75 36.75 0 0 1  551.25 294 L 551.25 330.75" fill="#bd9c93"/><rect x="551.25" y="294" width="36.75" height="36.75" fill="#bd9c93"/><path d="M 551.25 294 A 36.75 36.75 0 0 1 588 330.75 L 551.25 330.75" fill="#bd9c93"/><rect x="514.5" y="330.75" width="36.75" height="36.75" fill="#2b2712"/><path d="M 514.5 330.75 A 36.75 36.75 0 0 0 551.25 367.5 L 551.25 330.75" fill="#2b2712"/><rect x="551.25" y="330.75" width="36.75" height="36.75" fill="#bd9c93"/><path d="M 551.25 367.5 A 36.75 36.75 0 0 0 588 330.75 L 551.25 330.75" fill="#bd9c93"/><rect x="588" y="294" width="73.5" height="73.5" fill="#ffffff"/><rect x="588" y="294" width="36.75" height="36.75" fill="#bd9c93"/><path d="M 588 330.75 A 36.75 36.75 0 0 1  624.75 294 L 624.75 330.75" fill="#2b2712"/><rect x="624.75" y="294" width="36.75" height="36.75" fill="#bd9c93"/><path d="M 624.75 294 A 36.75 36.75 0 0 1 661.5 330.75 L 624.75 330.75" fill="#2b2712"/><rect x="588" y="330.75" width="36.75" height="36.75" fill="#2b2712"/><path d="M 588 330.75 A 36.75 36.75 0 0 0 624.75 367.5 L 624.75 330.75" fill="#bd9c93"/><rect x="624.75" y="330.75" width="36.75" height="36.75" fill="#bd9c93"/><path d="M 624.75 367.5 A 36.75 36.75 0 0 0 661.5 330.75 L 624.75 330.75" fill="#2b2712"/><rect x="661.5" y="294" width="73.5" height="73.5" fill="#ffffff"/><rect x="661.5" y="294" width="36.75" height="36.75" fill="#2b2712"/><path d="M 661.5 294 A 36.75 36.75 0 0 1 698.25 330.75 L 661.5 330.75" fill="#bd9c93"/><rect x="698.25" y="294" width="36.75" height="36.75" fill="#2b2712"/><path d="M 698.25 330.75 A 36.75 36.75 0 0 1  735 294 L 735 330.75" fill="#2b2712"/><rect x="661.5" y="330.75" width="36.75" height="36.75" fill="#bd9c93"/><path d="M 661.5 367.5 A 36.75 36.75 0 0 0 698.25 330.75 L 661.5 330.75" fill="#bd9c93"/><rect x="698.25" y="330.75" width="36.75" height="36.75" fill="#2b2712"/><path d="M 698.25 330.75 A 36.75 36.75 0 0 0 735 367.5 L 735 330.75" fill="#bd9c93"/><rect x="735" y="294" width="73.5" height="73.5" fill="#ffffff"/><rect x="735" y="294" width="36.75" height="36.75" fill="#bd9c93"/><polygon points="735,294 771.75,294 735,330.75" fill="#bd9c93"/><rect x="771.75" y="294" width="36.75" height="36.75" fill="#2b2712"/><polygon points="808.5,294 808.5,330.75 771.75,330.75" fill="#2b2712"/><rect x="735" y="330.75" width="36.75" height="36.75" fill="#bd9c93"/><polygon points="735,330.75 771.75,330.75 771.75,367.5" fill="#bd9c93"/><rect x="771.75" y="330.75" width="36.75" height="36.75" fill="#2b2712"/><polygon points="771.75,330.75 808.5,367.5 771.75,367.5" fill="#bd9c93"/><rect x="808.5" y="294" width="73.5" height="73.5" fill="#2b2712"/><rect x="808.5" y="294" width="73.5" height="73.5" fill="#2b2712"/><rect x="882" y="294" width="73.5" height="73.5" fill="#2b2712"/><rect x="882" y="294" width="73.5" height="73.5" fill="#2b2712"/><rect x="0" y="367.5" width="73.5" height="73.5" fill="#ffffff"/><rect x="0" y="367.5" width="36.75" height="36.75" fill="#2b2712"/><polygon points="0,367.5 36.75,367.5 0,404.25" fill="#bd9c93"/><rect x="36.75" y="367.5" width="36.75" height="36.75" fill="#bd9c93"/><polygon points="36.75,367.5 73.5,367.5 73.5,404.25" fill="#2b2712"/><rect x="0" y="404.25" width="36.75" height="36.75" fill="#bd9c93"/><polygon points="36.75,404.25 36.75,441 0,441" fill="#bd9c93"/><rect x="36.75" y="404.25" width="36.75" height="36.75" fill="#2b2712"/><polygon points="36.75,404.25 73.5,441 36.75,441" fill="#bd9c93"/><rect x="73.5" y="367.5" width="73.5" height="73.5" fill="#ffffff"/><rect x="73.5" y="367.5" width="36.75" height="36.75" fill="#bd9c93"/><polygon points="73.5,367.5 110.25,367.5 73.5,404.25" fill="#2b2712"/><rect x="110.25" y="367.5" width="36.75" height="36.75" fill="#bd9c93"/><polygon points="147,367.5 147,404.25 110.25,404.25" fill="#2b2712"/><rect x="73.5" y="404.25" width="36.75" height="36.75" fill="#bd9c93"/><polygon points="73.5,404.25 110.25,404.25 110.25,441" fill="#bd9c93"/><rect x="110.25" y="404.25" width="36.75" height="36.75" fill="#2b2712"/><polygon points="110.25,404.25 147,441 110.25,441" fill="#bd9c93"/><rect x="147" y="367.5" width="73.5" height="73.5" fill="#2b2712"/><rect x="147" y="367.5" width="73.5" height="73.5" fill="#2b2712"/><rect x="220.5" y="367.5" width="73.5" height="73.5" fill="#bd9c93"/><polygon points="220.5,367.5 294,367.5 220.5,441" fill="#2b2712"/><rect x="294" y="367.5" width="73.5" height="73.5" fill="#bd9c93"/><path d="M 294 367.5 A 73.5 73.5 0 0 0 367.5 441 L 367.5 367.5" fill="#2b2712"/><rect x="367.5" y="367.5" width="73.5" height="73.5" fill="#ffffff"/><rect x="367.5" y="367.5" width="36.75" height="36.75" fill="#2b2712"/><path d="M 367.5 367.5 A 36.75 36.75 0 0 0 404.25 404.25 L 404.25 367.5" fill="#2b2712"/><rect x="404.25" y="367.5" width="36.75" height="36.75" fill="#bd9c93"/><path d="M 404.25 404.25 A 36.75 36.75 0 0 0 441 367.5 L 404.25 367.5" fill="#bd9c93"/><rect x="367.5" y="404.25" width="36.75" height="36.75" fill="#bd9c93"/><path d="M 367.5 441 A 36.75 36.75 0 0 1  404.25 404.25 L 404.25 441" fill="#2b2712"/><rect x="404.25" y="404.25" width="36.75" height="36.75" fill="#2b2712"/><path d="M 404.25 404.25 A 36.75 36.75 0 0 1 441 441 L 404.25 441" fill="#2b2712"/><rect x="441" y="367.5" width="73.5" height="73.5" fill="#2b2712"/><polygon points="441,367.5 514.5,367.5 514.5,441" fill="#bd9c93"/><rect x="514.5" y="367.5" width="73.5" height="73.5" fill="#2b2712"/><rect x="514.5" y="367.5" width="73.5" height="73.5" fill="#2b2712"/><rect x="588" y="367.5" width="73.5" height="73.5" fill="#2b2712"/><polygon points="661.5,367.5 661.5,441 588,441" fill="#bd9c93"/><rect x="661.5" y="367.5" width="73.5" height="73.5" fill="#ffffff"/><rect x="661.5" y="367.5" width="36.75" height="36.75" fill="#bd9c93"/><path d="M 661.5 404.25 A 36.75 36.75 0 0 1  698.25 367.5 L 698.25 404.25" fill="#2b2712"/><rect x="698.25" y="367.5" width="36.75" height="36.75" fill="#2b2712"/><path d="M 698.25 367.5 A 36.75 36.75 0 0 1 735 404.25 L 698.25 404.25" fill="#2b2712"/><rect x="661.5" y="404.25" width="36.75" height="36.75" fill="#2b2712"/><path d="M 661.5 404.25 A 36.75 36.75 0 0 0 698.25 441 L 698.25 404.25" fill="#bd9c93"/><rect x="698.25" y="404.25" width="36.75" height="36.75" fill="#2b2712"/><path d="M 698.25 441 A 36.75 36.75 0 0 0 735 404.25 L 698.25 404.25" fill="#bd9c93"/><rect x="735" y="367.5" width="73.5" height="73.5" fill="#bd9c93"/><rect x="735" y="367.5" width="73.5" height="73.5" fill="#2b2712"/><rect x="808.5" y="367.5" width="73.5" height="73.5" fill="#ffffff"/><rect x="808.5" y="367.5" width="36.75" height="36.75" fill="#bd9c93"/><polygon points="808.5,367.5 845.25,367.5 808.5,404.25" fill="#2b2712"/><rect x="845.25" y="367.5" width="36.75" height="36.75" fill="#bd9c93"/><polygon points="845.25,367.5 882,367.5 882,404.25" fill="#bd9c93"/><rect x="808.5" y="404.25" width="36.75" height="36.75" fill="#2b2712"/><polygon points="808.5,404.25 845.25,441 808.5,441" fill="#2b2712"/><rect x="845.25" y="404.25" width="36.75" height="36.75" fill="#bd9c93"/><polygon points="882,404.25 882,441 845.25,441" fill="#bd9c93"/><rect x="882" y="367.5" width="73.5" height="73.5" fill="#bd9c93"/><rect x="882" y="367.5" width="73.5" height="73.5" fill="#bd9c93"/><rect x="0" y="441" width="73.5" height="73.5" fill="#ffffff"/><rect x="0" y="441" width="36.75" height="36.75" fill="#bd9c93"/><path d="M 0 477.75 A 36.75 36.75 0 0 1  36.75 441 L 36.75 477.75" fill="#bd9c93"/><rect x="36.75" y="441" width="36.75" height="36.75" fill="#2b2712"/><path d="M 36.75 441 A 36.75 36.75 0 0 1 73.5 477.75 L 36.75 477.75" fill="#bd9c93"/><rect x="0" y="477.75" width="36.75" height="36.75" fill="#bd9c93"/><path d="M 0 477.75 A 36.75 36.75 0 0 0 36.75 514.5 L 36.75 477.75" fill="#2b2712"/><rect x="36.75" y="477.75" width="36.75" height="36.75" fill="#2b2712"/><path d="M 36.75 514.5 A 36.75 36.75 0 0 0 73.5 477.75 L 36.75 477.75" fill="#2b2712"/><rect x="73.5" y="441" width="73.5" height="73.5" fill="#ffffff"/><rect x="73.5" y="441" width="36.75" height="36.75" fill="#2b2712"/><polygon points="73.5,441 110.25,441 73.5,477.75" fill="#2b2712"/><rect x="110.25" y="441" width="36.75" height="36.75" fill="#2b2712"/><polygon points="147,441 147,477.75 110.25,477.75" fill="#bd9c93"/><rect x="73.5" y="477.75" width="36.75" height="36.75" fill="#bd9c93"/><polygon points="73.5,477.75 110.25,477.75 110.25,514.5" fill="#bd9c93"/><rect x="110.25" y="477.75" width="36.75" height="36.75" fill="#2b2712"/><polygon points="110.25,477.75 147,514.5 110.25,514.5" fill="#bd9c93"/><rect x="147" y="441" width="73.5" height="73.5" fill="#ffffff"/><rect x="147" y="441" width="36.75" height="36.75" fill="#bd9c93"/><path d="M 147 477.75 A 36.75 36.75 0 0 1 183.75 441 L 183.75 450.1875 A 27.5625 27.5625 0 0 0 156.1875 477.75" fill="#2b2712"/><rect x="183.75" y="441" width="36.75" height="36.75" fill="#bd9c93"/><path d="M 183.75 441 A 36.75 36.75 0 0 1 220.5 477.75 L 211.3125 477.75 A 27.5625 27.5625 0 0 0 183.75 450.1875" fill="#2b2712"/><rect x="147" y="477.75" width="36.75" height="36.75" fill="#bd9c93"/><path d="M 147 477.75 A 36.75 36.75 0 0 0 183.75 514.5 L 183.75 505.3125 A 27.5625 27.5625 0 0 1 156.1875 477.75" fill="#bd9c93"/><rect x="183.75" y="477.75" width="36.75" height="36.75" fill="#2b2712"/><path d="M 183.75 514.5 A 36.75 36.75 0 0 0 220.5 477.75 L 211.3125 477.75 A 27.5625 27.5625 0 0 1 183.75 505.3125" fill="#2b2712"/><rect x="220.5" y="441" width="73.5" height="73.5" fill="#2b2712"/><rect x="220.5" y="441" width="73.5" height="73.5" fill="#bd9c93"/><rect x="294" y="441" width="73.5" height="73.5" fill="#bd9c93"/><polygon points="367.5,441 367.5,514.5 294,514.5" fill="#2b2712"/><rect x="367.5" y="441" width="73.5" height="73.5" fill="#ffffff"/><rect x="367.5" y="441" width="36.75" height="36.75" fill="#2b2712"/><path d="M 367.5 441 A 36.75 36.75 0 0 0 404.25 477.75 L 404.25 441" fill="#bd9c93"/><rect x="404.25" y="441" width="36.75" height="36.75" fill="#2b2712"/><path d="M 404.25 477.75 A 36.75 36.75 0 0 0 441 441 L 404.25 441" fill="#2b2712"/><rect x="367.5" y="477.75" width="36.75" height="36.75" fill="#bd9c93"/><path d="M 367.5 514.5 A 36.75 36.75 0 0 1  404.25 477.75 L 404.25 514.5" fill="#bd9c93"/><rect x="404.25" y="477.75" width="36.75" height="36.75" fill="#bd9c93"/><path d="M 404.25 477.75 A 36.75 36.75 0 0 1 441 514.5 L 404.25 514.5" fill="#bd9c93"/><rect x="441" y="441" width="73.5" height="73.5" fill="#ffffff"/><rect x="441" y="441" width="36.75" height="36.75" fill="#2b2712"/><circle cx="459.375" cy="459.375" r="18.375" fill="#bd9c93"/><rect x="477.75" y="441" width="36.75" height="36.75" fill="#2b2712"/><rect x="477.75" y="441" width="36.75" height="36.75" fill="#bd9c93"/><rect x="441" y="477.75" width="36.75" height="36.75" fill="#bd9c93"/><circle cx="459.375" cy="496.125" r="18.375" fill="#bd9c93"/><rect x="477.75" y="477.75" width="36.75" height="36.75" fill="#2b2712"/><rect x="477.75" y="477.75" width="36.75" height="36.75" fill="#2b2712"/><rect x="514.5" y="441" width="73.5" height="73.5" fill="#ffffff"/><rect x="514.5" y="441" width="36.75" height="36.75" fill="#bd9c93"/><circle cx="532.875" cy="459.375" r="18.375" fill="#bd9c93"/><rect x="551.25" y="441" width="36.75" height="36.75" fill="#2b2712"/><rect x="551.25" y="441" width="36.75" height="36.75" fill="#bd9c93"/><rect x="514.5" y="477.75" width="36.75" height="36.75" fill="#2b2712"/><circle cx="532.875" cy="496.125" r="18.375" fill="#bd9c93"/><rect x="551.25" y="477.75" width="36.75" height="36.75" fill="#2b2712"/><rect x="551.25" y="477.75" width="36.75" height="36.75" fill="#bd9c93"/><rect x="588" y="441" width="73.5" height="73.5" fill="#2b2712"/><polygon points="588,441 661.5,514.5 588,514.5" fill="#bd9c93"/><rect x="661.5" y="441" width="73.5" height="73.5" fill="#2b2712"/><rect x="661.5" y="441" width="73.5" height="73.5" fill="#bd9c93"/><rect x="735" y="441" width="73.5" height="73.5" fill="#ffffff"/><rect x="735" y="441" width="36.75" height="36.75" fill="#2b2712"/><polygon points="735,441 771.75,441 735,477.75" fill="#bd9c93"/><rect x="771.75" y="441" width="36.75" height="36.75" fill="#bd9c93"/><polygon points="808.5,441 808.5,477.75 771.75,477.75" fill="#2b2712"/><rect x="735" y="477.75" width="36.75" height="36.75" fill="#bd9c93"/><polygon points="735,477.75 771.75,477.75 771.75,514.5" fill="#bd9c93"/><rect x="771.75" y="477.75" width="36.75" height="36.75" fill="#2b2712"/><polygon points="771.75,477.75 808.5,514.5 771.75,514.5" fill="#2b2712"/><rect x="808.5" y="441" width="73.5" height="73.5" fill="#ffffff"/><rect x="808.5" y="441" width="36.75" height="36.75" fill="#2b2712"/><path d="M 808.5 477.75 A 36.75 36.75 0 0 0 845.25 441 L 808.5 441" fill="#bd9c93"/><rect x="845.25" y="441" width="36.75" height="36.75" fill="#bd9c93"/><path d="M 845.25 441 A 36.75 36.75 0 0 0 882 477.75 L 882 441" fill="#2b2712"/><rect x="808.5" y="477.75" width="36.75" height="36.75" fill="#2b2712"/><path d="M 808.5 477.75 A 36.75 36.75 0 0 1 845.25 514.5 L 808.5 514.5" fill="#2b2712"/><rect x="845.25" y="477.75" width="36.75" height="36.75" fill="#2b2712"/><path d="M 845.25 514.5 A 36.75 36.75 0 0 1  882 477.75 L 882 514.5" fill="#2b2712"/><rect x="882" y="441" width="73.5" height="73.5" fill="#2b2712"/><polygon points="955.5,441 955.5,514.5 882,514.5" fill="#2b2712"/><rect x="0" y="514.5" width="73.5" height="73.5" fill="#ffffff"/><rect x="0" y="514.5" width="36.75" height="36.75" fill="#2b2712"/><path d="M 0 551.25 A 36.75 36.75 0 0 1  36.75 514.5 L 36.75 551.25" fill="#2b2712"/><rect x="36.75" y="514.5" width="36.75" height="36.75" fill="#2b2712"/><path d="M 36.75 514.5 A 36.75 36.75 0 0 1 73.5 551.25 L 36.75 551.25" fill="#bd9c93"/><rect x="0" y="551.25" width="36.75" height="36.75" fill="#2b2712"/><path d="M 0 551.25 A 36.75 36.75 0 0 0 36.75 588 L 36.75 551.25" fill="#bd9c93"/><rect x="36.75" y="551.25" width="36.75" height="36.75" fill="#bd9c93"/><path d="M 36.75 588 A 36.75 36.75 0 0 0 73.5 551.25 L 36.75 551.25" fill="#2b2712"/><rect x="73.5" y="514.5" width="73.5" height="73.5" fill="#2b2712"/><polygon points="73.5,514.5 147,514.5 73.5,588" fill="#bd9c93"/><rect x="147" y="514.5" width="73.5" height="73.5" fill="#ffffff"/><rect x="147" y="514.5" width="36.75" height="36.75" fill="#2b2712"/><polygon points="147,514.5 183.75,514.5 147,551.25" fill="#bd9c93"/><rect x="183.75" y="514.5" width="36.75" height="36.75" fill="#2b2712"/><polygon points="183.75,514.5 220.5,514.5 220.5,551.25" fill="#2b2712"/><rect x="147" y="551.25" width="36.75" height="36.75" fill="#bd9c93"/><polygon points="183.75,551.25 183.75,588 147,588" fill="#2b2712"/><rect x="183.75" y="551.25" width="36.75" height="36.75" fill="#2b2712"/><polygon points="183.75,551.25 220.5,588 183.75,588" fill="#bd9c93"/><rect x="220.5" y="514.5" width="73.5" height="73.5" fill="#ffffff"/><rect x="220.5" y="514.5" width="36.75" height="36.75" fill="#2b2712"/><path d="M 220.5 551.25 A 36.75 36.75 0 0 0 257.25 514.5 L 220.5 514.5" fill="#bd9c93"/><rect x="257.25" y="514.5" width="36.75" height="36.75" fill="#bd9c93"/><path d="M 257.25 514.5 A 36.75 36.75 0 0 0 294 551.25 L 294 514.5" fill="#bd9c93"/><rect x="220.5" y="551.25" width="36.75" height="36.75" fill="#2b2712"/><path d="M 220.5 551.25 A 36.75 36.75 0 0 1 257.25 588 L 220.5 588" fill="#bd9c93"/><rect x="257.25" y="551.25" width="36.75" height="36.75" fill="#2b2712"/><path d="M 257.25 588 A 36.75 36.75 0 0 1  294 551.25 L 294 588" fill="#2b2712"/><rect x="294" y="514.5" width="73.5" height="73.5" fill="#bd9c93"/><rect x="294" y="514.5" width="73.5" height="73.5" fill="#2b2712"/><rect x="367.5" y="514.5" width="73.5" height="73.5" fill="#ffffff"/><rect x="367.5" y="514.5" width="36.75" height="36.75" fill="#bd9c93"/><circle cx="385.875" cy="532.875" r="18.375" fill="#bd9c93"/><rect x="404.25" y="514.5" width="36.75" height="36.75" fill="#2b2712"/><rect x="404.25" y="514.5" width="36.75" height="36.75" fill="#2b2712"/><rect x="367.5" y="551.25" width="36.75" height="36.75" fill="#bd9c93"/><circle cx="385.875" cy="569.625" r="18.375" fill="#bd9c93"/><rect x="404.25" y="551.25" width="36.75" height="36.75" fill="#2b2712"/><rect x="404.25" y="551.25" width="36.75" height="36.75" fill="#2b2712"/><rect x="441" y="514.5" width="73.5" height="73.5" fill="#bd9c93"/><path d="M 441 588 A 73.5 73.5 0 0 0 514.5 514.5 L 441 514.5" fill="#bd9c93"/><rect x="514.5" y="514.5" width="73.5" height="73.5" fill="#bd9c93"/><polygon points="514.5,514.5 588,514.5 514.5,588" fill="#2b2712"/><rect x="588" y="514.5" width="73.5" height="73.5" fill="#ffffff"/><rect x="588" y="514.5" width="36.75" height="36.75" fill="#bd9c93"/><path d="M 588 551.25 A 36.75 36.75 0 0 1 624.75 514.5 L 624.75 523.6875 A 27.5625 27.5625 0 0 0 597.1875 551.25" fill="#2b2712"/><rect x="624.75" y="514.5" width="36.75" height="36.75" fill="#2b2712"/><path d="M 624.75 514.5 A 36.75 36.75 0 0 1 661.5 551.25 L 652.3125 551.25 A 27.5625 27.5625 0 0 0 624.75 523.6875" fill="#bd9c93"/><rect x="588" y="551.25" width="36.75" height="36.75" fill="#bd9c93"/><path d="M 588 551.25 A 36.75 36.75 0 0 0 624.75 588 L 624.75 578.8125 A 27.5625 27.5625 0 0 1 597.1875 551.25" fill="#2b2712"/><rect x="624.75" y="551.25" width="36.75" height="36.75" fill="#2b2712"/><path d="M 624.75 588 A 36.75 36.75 0 0 0 661.5 551.25 L 652.3125 551.25 A 27.5625 27.5625 0 0 1 624.75 578.8125" fill="#2b2712"/><rect x="661.5" y="514.5" width="73.5" height="73.5" fill="#2b2712"/><rect x="661.5" y="514.5" width="73.5" height="73.5" fill="#2b2712"/><rect x="735" y="514.5" width="73.5" height="73.5" fill="#ffffff"/><rect x="735" y="514.5" width="36.75" height="36.75" fill="#2b2712"/><path d="M 735 514.5 A 36.75 36.75 0 0 0 771.75 551.25 L 771.75 514.5" fill="#2b2712"/><rect x="771.75" y="514.5" width="36.75" height="36.75" fill="#bd9c93"/><path d="M 771.75 551.25 A 36.75 36.75 0 0 0 808.5 514.5 L 771.75 514.5" fill="#2b2712"/><rect x="735" y="551.25" width="36.75" height="36.75" fill="#bd9c93"/><path d="M 735 588 A 36.75 36.75 0 0 1  771.75 551.25 L 771.75 588" fill="#bd9c93"/><rect x="771.75" y="551.25" width="36.75" height="36.75" fill="#2b2712"/><path d="M 771.75 551.25 A 36.75 36.75 0 0 1 808.5 588 L 771.75 588" fill="#bd9c93"/><rect x="808.5" y="514.5" width="73.5" height="73.5" fill="#2b2712"/><polygon points="808.5,514.5 882,588 808.5,588" fill="#bd9c93"/><rect x="882" y="514.5" width="73.5" height="73.5" fill="#bd9c93"/><polygon points="882,514.5 955.5,588 882,588" fill="#bd9c93"/></g></svg>